<?xml version="1.0" standalone="no"?>
<!DOCTYPE svg PUBLIC "-//W3C//DTD SVG 20010904//EN"
 "http://www.w3.org/TR/2001/REC-SVG-20010904/DTD/svg10.dtd">
<svg version="1.0" xmlns="http://www.w3.org/2000/svg"
 width="1088.000000pt" height="1088.000000pt" viewBox="0 0 1088.000000 1088.000000"
 preserveAspectRatio="xMidYMid meet">
<metadata>
Created by potrace 1.14, written by Peter Selinger 2001-2017
</metadata>
<g transform="translate(0.000000,1088.000000) scale(0.100000,-0.100000)"
fill="#000000" stroke="none">
<path d="M8658 10875 c-1 -1 -28 -5 -58 -8 -101 -10 -300 -62 -392 -101 -21
-9 -38 -13 -38 -9 0 5 -4 4 -8 -2 -7 -9 -100 -60 -112 -60 -3 0 -16 -8 -30
-16 -14 -9 -50 -31 -80 -50 -162 -100 -342 -274 -460 -444 -46 -67 -164 -285
-154 -285 2 0 -4 -17 -15 -37 -21 -43 -77 -237 -86 -298 -3 -23 -8 -52 -10
-65 -3 -14 -8 -68 -10 -121 -2 -54 -5 -101 -6 -105 -1 -5 -1 -11 0 -14 1 -3 4
-36 6 -75 5 -120 26 -240 59 -347 8 -27 12 -48 9 -48 -3 0 -1 -6 4 -12 6 -7
16 -31 23 -53 27 -85 137 -298 164 -317 7 -5 7 -8 1 -8 -6 0 -6 -3 1 -8 5 -4
20 -24 33 -44 12 -21 26 -38 31 -38 5 0 11 -9 15 -19 10 -33 270 -285 308
-300 6 -2 19 -12 29 -21 10 -9 31 -23 46 -31 15 -8 29 -17 32 -20 10 -13 197
-107 255 -128 33 -12 67 -24 75 -28 8 -3 20 -7 25 -8 6 -2 34 -10 63 -18 28
-9 52 -14 52 -11 0 3 9 0 19 -5 18 -10 88 -22 144 -25 15 0 27 -3 27 -6 0 -3
33 -5 73 -5 39 0 82 -3 93 -7 12 -4 24 -4 27 -1 3 3 46 7 94 8 143 6 372 58
498 114 22 10 64 28 93 41 28 13 52 28 52 32 0 5 4 7 9 4 5 -3 20 4 35 15 14
11 26 18 26 14 0 -3 6 -1 13 5 6 5 51 38 99 71 131 92 303 266 382 387 16 26
33 49 37 52 3 3 9 15 13 28 4 12 12 22 17 22 5 0 9 6 9 14 0 7 7 19 15 26 9 7
14 15 11 17 -2 3 11 33 30 69 19 35 32 64 29 64 -3 0 3 17 13 38 10 20 25 58
32 85 7 26 17 50 22 53 4 3 6 9 3 14 -3 5 -1 19 4 33 28 72 45 229 45 402 0
99 -4 196 -8 215 -4 19 -9 48 -12 64 -2 16 -13 65 -25 110 -11 45 -22 86 -23
91 -2 6 -8 24 -15 40 -7 17 -13 38 -14 48 -1 9 -6 17 -11 17 -5 0 -6 3 -3 7 4
3 0 15 -10 25 -9 10 -13 18 -10 18 4 0 -2 16 -13 35 -11 20 -20 42 -20 50 0 8
-3 15 -7 15 -5 0 -17 19 -28 43 -11 23 -22 44 -25 47 -3 3 -18 25 -34 50 -74
115 -226 283 -330 365 -69 54 -182 130 -224 150 -23 11 -42 23 -42 28 0 4 -7
7 -15 7 -8 0 -29 8 -47 18 -18 10 -60 29 -93 41 -33 12 -67 24 -75 28 -8 3
-20 7 -27 9 -6 1 -27 7 -45 13 -18 6 -44 13 -58 15 -14 3 -43 10 -65 15 -22 5
-60 12 -85 16 -47 7 -366 16 -372 10z"/>
<path d="M4950 10711 c-8 -3 -54 -32 -102 -63 -48 -32 -92 -58 -97 -58 -5 0
-11 -4 -13 -9 -1 -4 -39 -29 -83 -55 -110 -65 -238 -143 -250 -153 -6 -4 -17
-9 -25 -11 -8 -2 -16 -8 -18 -13 -2 -5 -9 -9 -17 -9 -7 0 -18 -7 -25 -15 -7
-9 -15 -13 -18 -10 -3 3 -12 -1 -21 -9 -9 -8 -41 -26 -71 -42 -30 -15 -57 -31
-60 -34 -5 -7 -22 -17 -107 -59 -26 -14 -50 -28 -53 -31 -3 -4 -16 -11 -30
-15 -14 -4 -27 -11 -30 -15 -6 -8 9 0 -330 -171 -240 -121 -447 -222 -460
-224 -3 -1 -27 -12 -55 -24 -86 -40 -167 -77 -245 -111 -41 -18 -81 -37 -87
-42 -7 -6 -13 -7 -13 -4 0 4 -10 1 -22 -6 -13 -7 -26 -11 -30 -10 -5 1 -8 -2
-8 -8 0 -6 -3 -9 -7 -8 -9 1 -31 -7 -98 -38 -28 -12 -63 -26 -78 -29 -15 -4
-27 -10 -27 -14 0 -4 -8 -7 -18 -8 -10 -1 -43 -13 -73 -26 -51 -23 -118 -51
-129 -53 -3 0 -18 -6 -35 -13 -16 -7 -59 -24 -95 -37 -36 -13 -74 -29 -85 -35
-12 -5 -27 -11 -35 -13 -8 -2 -26 -8 -40 -13 -26 -11 -287 -103 -305 -107 -5
-2 -17 -6 -25 -9 -8 -3 -85 -29 -170 -56 -188 -60 -204 -65 -210 -66 -3 0 -9
-3 -15 -6 -5 -4 -26 -10 -45 -15 -49 -11 -49 -11 -55 -14 -3 -1 -8 -3 -12 -4
-5 -2 -28 -9 -53 -16 -25 -7 -47 -14 -50 -15 -3 -1 -25 -7 -50 -14 -25 -7 -54
-15 -65 -18 -38 -8 -50 -11 -50 -13 0 -2 -23 -8 -83 -22 -28 -7 -52 -16 -52
-21 0 -4 -4 -6 -8 -3 -5 3 -29 -1 -54 -9 -26 -7 -49 -11 -52 -8 -3 4 -6 2 -6
-3 0 -5 -8 -10 -17 -10 -23 -1 -63 -10 -86 -19 -17 -7 -18 -69 -14 -1539 2
-842 7 -1547 10 -1566 3 -19 8 -73 12 -120 3 -47 8 -96 10 -110 2 -14 6 -46 9
-72 3 -26 8 -64 11 -85 3 -21 8 -54 10 -73 3 -19 9 -57 15 -85 5 -27 12 -66
14 -85 6 -34 10 -61 21 -110 3 -14 7 -36 10 -50 2 -14 9 -46 15 -71 6 -26 12
-53 13 -60 2 -8 6 -20 10 -26 5 -7 6 -13 3 -13 -2 0 2 -24 10 -52 8 -29 17
-62 19 -72 2 -10 9 -33 14 -50 6 -17 12 -42 15 -56 3 -14 10 -38 15 -55 6 -16
27 -79 47 -140 43 -134 98 -284 126 -345 11 -25 26 -61 33 -80 7 -19 24 -59
39 -89 14 -30 26 -60 26 -67 0 -6 7 -17 15 -24 9 -7 13 -15 11 -18 -8 -7 202
-410 230 -443 8 -9 11 -19 7 -22 -3 -4 -2 -7 4 -7 6 0 19 -16 28 -36 15 -32
99 -169 122 -199 5 -5 35 -51 69 -101 89 -133 108 -158 121 -167 7 -4 13 -13
13 -20 0 -7 14 -28 30 -47 16 -19 33 -39 37 -45 88 -115 142 -182 171 -211 12
-13 22 -27 22 -33 0 -5 4 -11 8 -13 5 -1 42 -41 83 -88 128 -148 360 -385 499
-510 39 -36 85 -77 102 -93 17 -15 53 -46 81 -70 28 -23 65 -56 84 -74 18 -17
33 -28 33 -25 0 4 4 2 8 -4 4 -7 48 -44 97 -83 50 -39 98 -78 108 -86 9 -8 21
-15 26 -15 5 0 11 -3 13 -8 3 -8 77 -67 114 -92 64 -43 209 -147 225 -162 11
-10 19 -16 19 -13 0 3 42 -24 94 -60 52 -36 99 -65 105 -65 6 0 11 -4 11 -10
0 -5 5 -10 12 -10 6 0 19 -7 29 -16 21 -19 77 -52 102 -60 9 -4 17 -10 17 -15
0 -5 4 -9 9 -9 5 0 40 -19 77 -42 38 -23 94 -55 124 -71 30 -16 63 -37 73 -45
9 -8 17 -12 17 -9 0 4 22 -7 49 -23 26 -17 53 -30 60 -30 6 0 11 -5 11 -12 0
-6 3 -9 6 -5 3 3 23 -4 43 -16 106 -66 623 -302 684 -313 4 -1 9 -3 12 -4 3
-1 8 -3 13 -4 4 -1 12 -4 17 -7 13 -7 48 -4 72 6 10 4 26 10 37 12 10 2 33 9
50 17 17 7 83 35 146 61 63 27 158 69 210 94 52 25 98 44 103 43 4 -1 7 2 7 8
0 5 8 10 18 10 10 0 22 4 27 9 6 4 69 39 140 76 158 83 167 88 230 126 28 16
61 35 75 42 14 6 27 14 30 17 10 10 45 31 63 36 9 4 17 10 17 14 0 4 11 11 25
14 14 4 25 11 25 16 0 6 7 10 15 10 8 0 15 5 15 10 0 6 4 9 8 8 9 -3 375 236
399 260 7 7 13 10 13 5 0 -4 4 -3 8 3 4 5 30 26 57 45 28 18 57 42 66 51 9 10
19 15 22 11 4 -3 9 2 13 11 3 9 10 16 15 16 5 0 17 7 26 15 10 8 47 37 83 64
36 28 72 57 80 64 8 7 35 29 60 48 24 19 49 39 56 44 6 6 33 29 60 52 165 139
251 219 450 418 110 110 229 233 265 274 35 41 73 84 84 95 11 12 36 41 55 66
19 24 45 56 57 70 27 29 139 173 168 215 11 15 27 36 37 46 9 9 14 20 11 23
-3 3 2 8 11 12 9 3 16 12 16 19 0 7 4 15 8 17 11 4 230 337 263 398 13 25 26
47 29 50 11 11 82 138 107 193 10 20 21 37 25 37 5 0 8 4 8 9 0 9 121 267 141
301 5 8 12 22 15 30 3 8 20 49 37 90 18 41 31 78 29 83 -1 4 2 7 8 7 6 0 9 3
8 8 0 4 2 16 7 27 77 201 174 497 200 610 1 6 4 17 8 25 7 19 36 146 52 225 9
47 11 57 24 110 6 22 10 41 11 43 0 1 0 3 1 5 0 1 2 17 5 36 2 19 7 46 10 60
3 14 7 44 10 66 3 22 7 51 9 65 3 14 8 48 11 75 3 28 8 61 11 75 2 14 5 32 5
40 0 8 4 49 8 90 11 95 21 250 24 361 2 47 6 90 9 96 4 6 4 13 0 16 -6 6 -6
62 -1 285 2 56 -1 102 -5 102 -5 0 -6 4 -3 9 6 9 7 57 6 171 -1 36 -1 70 0 75
5 44 0 267 -6 276 -4 7 -3 9 2 6 6 -3 8 9 6 29 -5 37 -20 54 -32 34 -4 -6 -10
-11 -14 -11 -15 3 -106 -12 -106 -18 0 -3 -10 -6 -22 -7 -31 -2 -132 -16 -138
-19 -6 -4 -159 -18 -202 -19 -16 -1 -28 -4 -28 -8 0 -4 -9 -4 -21 0 -25 10
-81 3 -74 -8 3 -5 1 -11 -4 -14 -5 -3 -5 -21 -1 -41 4 -19 5 -35 1 -35 -3 0
-5 -30 -3 -67 3 -74 3 -105 -1 -171 -1 -23 0 -42 3 -42 3 0 4 -28 3 -62 -1
-35 -2 -75 -3 -90 0 -55 -2 -83 -4 -103 -1 -11 1 -37 5 -57 3 -21 4 -38 0 -38
-8 0 -5 -135 3 -149 4 -6 4 -11 -1 -11 -4 0 -8 -30 -9 -68 -1 -89 -13 -309
-19 -347 -3 -16 -7 -52 -10 -80 -12 -115 -13 -126 -31 -238 -3 -23 -8 -55 -9
-72 -2 -16 -4 -30 -5 -30 -2 0 -4 -9 -14 -60 -3 -16 -10 -50 -15 -75 -5 -25
-7 -48 -5 -52 3 -5 1 -8 -5 -8 -5 0 -8 -8 -6 -17 1 -10 0 -22 -4 -28 -3 -5 -7
-19 -8 -29 -2 -11 -11 -47 -19 -80 -9 -34 -17 -65 -19 -71 -18 -79 -102 -346
-125 -400 -10 -25 -45 -118 -46 -125 0 -3 -8 -23 -18 -45 -9 -22 -23 -57 -29
-77 -7 -21 -15 -38 -19 -38 -5 0 -8 -9 -8 -20 0 -11 -5 -20 -12 -20 -6 0 -8
-3 -5 -6 4 -4 0 -19 -8 -33 -7 -14 -43 -87 -80 -161 -36 -74 -70 -142 -75
-150 -5 -8 -35 -62 -67 -120 -31 -58 -61 -106 -65 -108 -4 -2 -8 -10 -8 -18 0
-8 -5 -14 -12 -14 -6 0 -8 -3 -5 -7 4 -3 -4 -21 -18 -39 -14 -18 -25 -37 -25
-43 0 -6 -4 -11 -10 -11 -5 0 -10 -7 -10 -15 0 -8 -4 -15 -10 -15 -5 0 -10 -7
-10 -15 0 -8 -4 -15 -10 -15 -5 0 -10 -4 -10 -10 0 -5 -12 -27 -27 -48 -16
-22 -44 -61 -63 -88 -19 -27 -40 -55 -47 -62 -7 -7 -13 -17 -13 -21 0 -5 -10
-19 -22 -33 -39 -43 -58 -68 -53 -68 3 0 -3 -8 -12 -18 -25 -26 -53 -60 -88
-107 -17 -22 -41 -51 -55 -65 -14 -14 -35 -38 -48 -55 -92 -118 -424 -452
-611 -613 -14 -12 -38 -32 -52 -45 -69 -60 -203 -168 -274 -222 -22 -16 -41
-33 -43 -37 -2 -4 -9 -8 -16 -8 -6 0 -18 -9 -26 -19 -7 -11 -17 -18 -22 -15
-4 3 -11 -2 -14 -10 -3 -9 -10 -16 -15 -16 -6 0 -15 -5 -22 -10 -37 -31 -94
-72 -154 -111 -37 -24 -70 -46 -73 -49 -9 -11 -180 -120 -180 -115 0 3 -12 -5
-26 -18 -14 -12 -28 -20 -31 -19 -3 2 -9 0 -12 -5 -5 -7 -75 -49 -251 -152
-19 -11 -55 -30 -80 -43 -25 -13 -47 -25 -50 -28 -5 -6 -351 -177 -410 -203
-163 -73 -194 -84 -209 -76 -25 14 -169 79 -175 79 -9 0 -343 166 -416 206
-193 106 -366 208 -396 233 -6 5 -20 12 -32 15 -12 4 -22 12 -22 17 0 5 -5 9
-11 9 -5 0 -78 46 -161 102 -82 57 -157 108 -167 113 -9 6 -18 12 -21 15 -19
19 -121 90 -130 90 -6 0 -8 5 -5 10 3 6 1 10 -5 10 -9 0 -111 79 -284 220 -53
43 -207 181 -280 250 -101 96 -366 367 -366 375 0 2 -12 16 -27 32 -141 146
-470 585 -535 713 -7 14 -18 29 -25 33 -7 4 -13 12 -13 17 0 4 -26 52 -58 107
-85 142 -192 350 -185 357 4 3 1 6 -5 6 -7 0 -12 5 -12 10 0 6 -15 41 -33 78
-18 37 -34 70 -35 75 -1 4 -10 28 -22 53 -11 26 -20 48 -20 51 0 2 -8 23 -19
46 -18 43 -91 240 -96 261 -1 6 -5 20 -9 31 -22 59 -68 209 -71 235 -1 8 -5
22 -7 30 -8 22 -30 102 -34 125 -6 30 -11 55 -24 110 -6 28 -14 59 -16 70 -3
11 -7 36 -10 55 -2 19 -7 46 -10 60 -3 14 -7 39 -9 55 -3 17 -7 41 -10 55 -3
14 -8 39 -10 55 -2 17 -6 55 -10 85 -10 80 -16 137 -31 296 -5 53 -14 525 -14
694 0 58 0 152 -1 210 0 58 0 112 0 120 1 8 1 35 0 60 0 25 0 68 0 95 2 204 1
307 -4 315 -3 5 -2 11 3 14 4 3 6 29 3 58 -3 29 -4 71 -1 93 3 22 3 68 0 103
-3 35 -3 65 0 67 4 2 4 28 1 57 -3 29 -4 71 -1 93 3 22 3 68 0 103 -3 35 -3
65 0 67 4 2 4 28 0 57 -3 29 -3 66 0 82 3 16 3 60 0 98 -3 37 -3 68 0 68 7 0
3 107 -5 119 -3 6 1 12 9 12 9 1 19 2 24 3 4 1 23 6 42 10 19 5 41 13 48 18 6
6 12 8 12 5 0 -3 19 1 43 8 23 7 110 34 192 60 83 25 157 49 165 52 8 4 17 7
20 8 3 0 30 9 60 20 30 11 58 20 63 21 4 1 9 3 12 4 3 1 8 3 13 4 4 1 32 10
62 21 30 11 57 20 60 20 3 1 13 5 22 9 9 4 22 9 30 10 7 2 27 9 43 16 17 7 66
25 110 40 44 15 105 38 135 50 30 12 60 23 65 25 6 1 19 6 30 10 11 4 58 23
105 42 47 19 94 38 105 43 18 7 51 20 65 25 3 1 16 6 30 12 14 6 81 34 150 63
69 29 143 60 165 70 79 36 321 142 345 153 14 5 32 11 40 13 8 2 16 8 18 13 2
6 10 11 17 11 7 0 30 9 52 19 103 53 293 141 301 141 6 0 12 3 14 8 3 8 248
129 262 130 5 0 12 4 15 9 3 5 27 20 53 32 27 13 50 27 54 32 3 5 9 7 14 4 5
-3 14 1 22 8 7 7 28 19 46 26 17 7 32 18 32 23 0 5 4 7 8 4 5 -3 24 5 43 17
19 13 52 31 74 42 22 11 51 28 64 37 13 10 27 15 32 12 5 -3 9 -1 9 5 0 5 18
17 40 27 22 10 40 21 40 24 0 3 16 12 35 19 19 7 35 17 35 22 0 5 9 9 19 9 11
0 21 4 23 8 2 5 35 26 73 47 39 21 72 42 75 45 3 4 29 19 58 35 46 25 56 27
74 16 11 -7 35 -21 52 -30 17 -10 61 -37 99 -59 37 -23 72 -42 77 -42 6 0 10
-4 10 -10 0 -5 9 -10 19 -10 11 0 21 -4 23 -9 2 -4 37 -27 78 -50 41 -23 89
-50 105 -60 41 -24 181 -100 230 -124 22 -11 51 -28 65 -37 14 -10 28 -18 33
-19 16 -2 112 -54 119 -65 4 -6 8 -8 8 -4 0 3 80 -34 177 -83 98 -49 183 -89
190 -89 7 0 13 -4 13 -10 0 -5 5 -10 10 -10 6 0 31 -10 55 -21 25 -12 49 -19
52 -15 4 3 7 61 9 129 2 117 5 149 19 262 12 93 42 253 51 266 2 4 -78 48
-179 98 -183 93 -311 159 -422 220 -64 36 -297 168 -330 188 -11 7 -29 17 -40
23 -11 5 -38 22 -60 35 -22 14 -55 33 -72 42 -18 9 -33 20 -33 24 0 4 -11 10
-24 13 -14 3 -31 12 -38 19 -7 7 -31 24 -53 37 -36 21 -224 142 -250 160 -5 4
-17 5 -25 1z"/>
</g>
</svg>
